<?xml version="1.0" encoding="utf-8"?>
<!-- Generator: Adobe Illustrator 16.0.0, SVG Export Plug-In . SVG Version: 6.00 Build 0)  -->
<!DOCTYPE svg PUBLIC "-//W3C//DTD SVG 1.1//EN" "http://www.w3.org/Graphics/SVG/1.1/DTD/svg11.dtd">
<svg version="1.1" xmlns="http://www.w3.org/2000/svg" xmlns:xlink="http://www.w3.org/1999/xlink" x="0px" y="0px"
	 width="282.667px" height="147.333px" viewBox="0 0 282.667 147.333" enable-background="new 0 0 282.667 147.333"
	 xml:space="preserve">
<g id="Layer_1" display="none">
	<g id="IXEUb5_1_" display="inline">
		
			<image overflow="visible" width="300" height="178" id="IXEUb5_2_" xlink:href="40543BA262BA6AC3.png"  transform="matrix(1 0 0 1 -173.333 86.6665)">
		</image>
	</g>
</g>
<g id="Layer_2" display="none">
	<g display="inline">
		<defs>
			
				<rect id="SVGID_1_" x="-287.833" y="16.055" transform="matrix(-0.9929 0.1193 -0.1193 -0.9929 -412.8781 205.3189)" width="150.499" height="148.5"/>
		</defs>
		<clipPath id="SVGID_2_">
			<use xlink:href="#SVGID_1_"  overflow="visible" opacity="0.2"/>
		</clipPath>
		<g transform="matrix(1 0 0 1 -6.103516e-05 7.629395e-06)" clip-path="url(#SVGID_2_)">
			
				<image overflow="visible" width="450" height="470" id="ftxr5K_2_" xlink:href="40543BA262BA6AC1.png"  transform="matrix(0.9929 -0.1193 0.1193 0.9929 -593.5132 61.2798)">
			</image>
		</g>
	</g>
	<g id="ftxr5K_3_">
		
			<image display="inline" overflow="visible" width="450" height="470" id="ftxr5K_4_" xlink:href="40543BA262BA6AC7.png"  transform="matrix(1 0 0 1 -248.333 -59.3335)">
		</image>
	</g>
</g>
<g id="Layer_3">
	<g>
		<path fill="#C58D2C" d="M96.754,145.587c-1.79,0-3.429-0.087-4.872-0.261c-10.262-1.23-30.896-18.512-33.292-20.544
			c-1.922-0.395-14.302-2.999-26.603-6.934c-18.242-5.835-27.645-11.76-27.944-17.609c-0.015-0.291,0.099-0.574,0.31-0.775
			c0.187-0.178,0.434-0.276,0.689-0.276c0.033,0,0.066,0.001,0.1,0.005l12.265,1.223L5.561,94.938
			c-0.316-0.146-0.533-0.447-0.573-0.793s0.103-0.688,0.377-0.902c2.105-1.646,51.731-40.349,67.411-44.686
			c10.913-3.019,25.205-3.469,32.753-3.469c3.567,0,5.868,0.1,5.891,0.101c0.081,0.003,0.16,0.017,0.238,0.04
			c2.88,0.846,70.636,20.811,79.363,28.196c2.673,2.261,5.886,3.408,9.549,3.408c3.761,0,6.89-1.229,7.88-1.779
			c0.183-0.318,0.56-0.533,0.926-0.533c0.431,0,0.809,0.241,0.975,0.617c0.1,0.074,0.22,0.161,0.355,0.261
			c1.94,1.43,6.483,4.78,7.134,9.402c0.3,2.128-0.271,4.227-1.695,6.245c0.574,1.955,2.378,8.454,1.745,11.046
			c-0.583,2.388-4.902,6.763-7.181,6.763c-0.041,0-0.082-0.002-0.123-0.008c-0.066-0.008-6.729-0.826-12.425-0.826
			c-4.05,0-5.898,0.412-6.736,0.758c-3.033,1.252-7.479,6.076-11.054,9.952c-2.545,2.761-4.555,4.941-5.838,5.663
			C157.919,133.735,117.968,145.587,96.754,145.587z"/>
	</g>
	<g>
		<path fill="#D7B029" d="M194.334,73.333c-0.093,0-0.187-0.013-0.277-0.039l-92.333-26.667c-0.315-0.091-0.566-0.332-0.671-0.644
			s-0.049-0.654,0.148-0.917c0.189-0.253,19.08-25.465,27.959-39.274c0.926-1.44,2.266-2.201,3.876-2.201
			c7.009,0,18.928,14.371,35,34.673c10.292,13.001,21.957,27.736,26.225,27.736c0.367-0.01,0.674-0.015,0.962-0.015
			c2.098,0,4.557,0.21,4.953,1.846c0.491,2.024-3.162,4.246-5.384,5.391C194.649,73.296,194.492,73.333,194.334,73.333z"/>
	</g>
	<g>
		<path fill="#FFCE06" d="M191.334,71.333c-0.093,0-0.187-0.013-0.277-0.039L98.724,44.628c-0.315-0.091-0.566-0.332-0.671-0.644
			s-0.049-0.654,0.148-0.917c0.189-0.253,19.08-25.465,27.959-39.274c0.926-1.44,2.266-2.201,3.876-2.201
			c7.009,0,18.928,14.371,35,34.673c10.292,13.001,21.957,27.736,26.225,27.736c0.367-0.01,0.674-0.015,0.962-0.015
			c2.098,0,4.557,0.21,4.953,1.846c0.491,2.024-3.162,4.246-5.384,5.391C191.649,71.296,191.492,71.333,191.334,71.333z"/>
	</g>
	<g>
		<path fill="#DCB427" d="M279.571,117.874c-0.477,0-0.979-0.133-1.529-0.405c-18.941-0.029-62.577-1.061-65.006-9.87
			c-0.017-0.058-0.027-0.117-0.032-0.177l-3-33.812c-0.043-0.481,0.265-0.923,0.729-1.052c0.428-0.118,42.515-11.81,51.818-17.989
			c1.101-2.389,1.63-2.818,2.309-2.818c0.276,0,0.609,0.145,0.798,0.346c0.348,0.37,0.367,0.865,0.34,1.3
			c-0.051,0.817-0.641,1.615-1.851,2.498c-3.775,8.511-8.996,27.752-4.312,34.891l0.704,1.073
			c5.502,8.392,13.771,21.001,18.018,23.611h0.148c1.142,0,1.776-0.005,1.778-0.005c0.003,0,0.006,0,0.009,0
			c0.394,0,0.75,0.23,0.912,0.589c0.162,0.361,0.097,0.785-0.169,1.08C280.801,117.617,280.225,117.874,279.571,117.874z"/>
	</g>
	<g>
		<path fill="#FFCE06" d="M279.571,115.874c-0.477,0-0.979-0.133-1.529-0.405c-18.941-0.029-62.577-1.061-65.006-9.87
			c-0.017-0.058-0.027-0.117-0.032-0.177l-3-33.812c-0.043-0.481,0.265-0.923,0.729-1.052c0.428-0.118,42.515-11.81,51.818-17.989
			c1.101-2.389,1.63-2.818,2.309-2.818c0.276,0,0.609,0.145,0.798,0.346c0.348,0.37,0.367,0.865,0.34,1.3
			c-0.051,0.817-0.641,1.615-1.851,2.498c-3.775,8.511-8.996,27.752-4.312,34.891l0.704,1.073
			c5.502,8.392,13.771,21.001,18.018,23.611h0.148c1.142,0,1.776-0.005,1.778-0.005c0.003,0,0.006,0,0.009,0
			c0.394,0,0.75,0.23,0.912,0.589c0.162,0.361,0.097,0.785-0.169,1.08C280.801,115.617,280.225,115.874,279.571,115.874z"/>
	</g>
	<path opacity="0.05" fill="#6D6C6B" stroke="#5E5F5F" stroke-width="0.9631" stroke-miterlimit="10" d="M215.027,85.307
		c0,0,36.875-1.884,41.973,4.026c5.098,5.909-40.618,1.476-41.737,7.943"/>
	<path opacity="0.1" fill="#6D6C6B" stroke="#5E5F5F" stroke-miterlimit="10" d="M115.334,45.088c0,0,10.333-18.754,18.333-21.088
		s-12.892,20.718-7,24.333"/>
	<g>
		<path fill="#EDB121" d="M95.754,143.587c-1.79,0-3.429-0.087-4.872-0.261c-10.262-1.23-30.896-18.512-33.292-20.544
			c-1.922-0.395-14.302-2.999-26.603-6.934c-18.242-5.835-27.645-11.76-27.944-17.609c-0.015-0.291,0.099-0.574,0.31-0.775
			c0.187-0.178,0.434-0.276,0.689-0.276c0.033,0,0.066,0.001,0.1,0.005l12.265,1.223L4.561,92.938
			c-0.316-0.146-0.533-0.447-0.573-0.793s0.103-0.688,0.377-0.902c2.105-1.646,51.731-40.349,67.411-44.686
			c10.913-3.019,25.205-3.469,32.753-3.469c3.567,0,5.868,0.1,5.891,0.101c0.081,0.003,0.16,0.017,0.238,0.04
			c2.88,0.846,70.636,20.811,79.363,28.196c2.673,2.261,5.886,3.408,9.549,3.408c3.761,0,6.89-1.229,7.88-1.779
			c0.183-0.318,0.56-0.533,0.926-0.533c0.431,0,0.809,0.241,0.975,0.617c0.1,0.074,0.22,0.161,0.355,0.261
			c1.94,1.43,6.483,4.78,7.134,9.402c0.3,2.128-0.271,4.227-1.695,6.245c0.574,1.955,2.378,8.454,1.745,11.046
			c-0.583,2.388-4.902,6.763-7.181,6.763c-0.041,0-0.082-0.002-0.123-0.008c-0.066-0.008-6.729-0.826-12.425-0.826
			c-4.05,0-5.898,0.412-6.736,0.758c-3.033,1.252-7.479,6.076-11.054,9.952c-2.545,2.761-4.555,4.941-5.838,5.663
			C156.919,131.735,116.968,143.587,95.754,143.587z"/>
	</g>
	<path opacity="0.2" fill="#C15E28" d="M71.548,88.689l120.955,18.748c0,0-17.118,15.868-38.851,24.854
		c-22.052,9.118-48.767,11.358-54.651,11.749c-11.062,0.734-28.599-5.503-37.133-17.501L71.548,88.689z"/>
	<g opacity="0.1">
		<path fill="#2B2B2B" d="M94.369,112.177c-0.812,0-1.406-0.121-1.819-0.371c-3.145-1.904-3.966-2.774-6.402-5.357
			c-0.044-0.046-0.086-0.102-0.119-0.157c-0.137-0.232-3.381-5.721-4.609-9.448c-0.677-2.054-0.738-2.27-0.738-2.27
			c-0.069-0.245-0.027-0.51,0.113-0.721l2.734-4.08c0.141-0.209,0.365-0.347,0.615-0.377c1.354-0.167,5.193-0.898,6.681-2.261
			c0.781-0.716,2.126-1.432,3.829-2.338c2.904-1.546,6.882-3.663,9.226-6.639c3.462-4.394,2.155-11.512,2.142-11.583
			c-0.045-0.235,0.01-0.479,0.15-0.672c0.141-0.194,0.355-0.321,0.593-0.351l36.703-4.624l36.62-8.295
			c0.063-0.014,0.128-0.021,0.191-0.021c0.182,0,0.36,0.058,0.511,0.167c0.202,0.147,0.33,0.375,0.353,0.624
			c0.14,1.561-0.483,3.111-1.852,4.608c-4.903,5.362-18.544,9.314-29.124,11.685c-11.751,2.634-25.168,4.474-32.626,4.474
			c-0.001,0-0.002,0-0.003,0c-1.648,0-2.721-0.095-3.44-0.225v0.713c0.942,0.008,2.597,0.018,4.626,0.018
			c5.364,0,14.96-0.077,18.962-0.597c21.258-2.76,36.663-11.508,36.815-11.596c0.135-0.078,0.284-0.116,0.433-0.116
			c0.195,0,0.391,0.066,0.549,0.196c0.278,0.228,0.388,0.604,0.273,0.945c-0.129,0.388-3.283,9.533-13.937,13.824
			c-9.834,3.961-21.241,4.718-28.056,5.169l-1.399,0.094c-0.803,0.056-2.009,0.085-3.489,0.085c-1.536,0-14.438-0.051-17.172-1.725
			c-0.105,0.164-0.217,0.344-0.329,0.53c3.568,0.915,14.776,3.714,18.266,3.714l0.118-0.001c6.408-0.14,31.058-6.266,33.661-7.567
			c0.12-0.06,0.317-0.113,0.452-0.113c0.479,0,0.887,0.407,0.887,0.886c0,1.634-10.992,11.276-14.972,11.418
			c-1.263,0.408-10.556,3.339-16.854,3.34c-0.277,0-0.547-0.006-0.812-0.018c-5.348-0.237-22.664-2.342-27.129-5.625l-0.105,0.094
			c2.379,1.329,8.141,4.49,10.501,5.29c2.658,0.901,7.041,1.975,12.828,1.975c5.443,0,10.803-0.954,15.929-2.835
			c0.099-0.036,0.199-0.053,0.299-0.053c0.328,0,0.64,0.188,0.786,0.501c0.19,0.408,0.036,0.895-0.355,1.119l-11.85,6.791
			c-0.097,0.055-0.203,0.092-0.313,0.106c-0.39,0.053-9.591,1.297-14.184,1.297c-1.86,0-2.43-0.202-2.768-0.42
			c-0.362-0.234-1.93-0.946-3.744-1.77c-8.244-3.741-13.305-6.276-14.883-8.141l-1.026,0.411
			c2.824,2.828,12.117,11.302,22.039,11.302c0.507,0,1.016-0.022,1.511-0.066c0.026-0.002,0.052-0.003,0.077-0.003
			c0.357,0,0.682,0.221,0.811,0.56c0.138,0.363,0.018,0.773-0.295,1.004c-0.244,0.181-6.041,4.421-11.908,4.421
			c-0.771,0-1.519-0.075-2.224-0.222c-3.151-0.66-11.652-6.389-12.013-6.632c-0.058-0.039-0.111-0.085-0.158-0.137
			c-3.677-4.07-5.279-6.076-5.938-7.15c1.013,3.553,2.446,6.672,3.207,6.89c1.055,0.302,2.102,1.299,3.313,2.454
			c1.516,1.445,3.233,3.083,5.199,3.611c1.425,0.384,1.641,1.093,1.571,1.621C101.054,111.382,95.955,112.177,94.369,112.177z"/>
	</g>
	<g>
		<path fill="#EFEDE8" d="M94.369,110.177c-0.812,0-1.406-0.121-1.819-0.371c-3.145-1.904-3.966-2.774-6.402-5.357
			c-0.044-0.046-0.086-0.102-0.119-0.157c-0.137-0.232-3.381-5.721-4.609-9.448c-0.677-2.054-0.738-2.27-0.738-2.27
			c-0.069-0.245-0.027-0.51,0.113-0.721l2.734-4.08c0.141-0.209,0.365-0.347,0.615-0.377c1.354-0.167,5.193-0.898,6.681-2.261
			c0.781-0.716,2.126-1.432,3.829-2.338c2.904-1.546,6.882-3.663,9.226-6.639c3.462-4.394,2.155-11.512,2.142-11.583
			c-0.045-0.235,0.01-0.479,0.15-0.672c0.141-0.194,0.355-0.321,0.593-0.351l36.703-4.624l36.62-8.295
			c0.063-0.014,0.128-0.021,0.191-0.021c0.182,0,0.36,0.058,0.511,0.167c0.202,0.147,0.33,0.375,0.353,0.624
			c0.14,1.561-0.483,3.111-1.852,4.608c-4.903,5.362-18.544,9.314-29.124,11.685c-11.751,2.634-25.168,4.474-32.626,4.474
			c-0.001,0-0.002,0-0.003,0c-1.648,0-2.721-0.095-3.44-0.225v0.713c0.942,0.008,2.597,0.018,4.626,0.018
			c5.364,0,14.96-0.077,18.962-0.597c21.258-2.76,36.663-11.508,36.815-11.596c0.135-0.078,0.284-0.116,0.433-0.116
			c0.195,0,0.391,0.066,0.549,0.196c0.278,0.228,0.388,0.604,0.273,0.945c-0.129,0.388-3.283,9.533-13.937,13.824
			c-9.834,3.961-21.241,4.718-28.056,5.169l-1.399,0.094c-0.803,0.056-2.009,0.085-3.489,0.085c-1.536,0-14.438-0.051-17.172-1.725
			c-0.105,0.164-0.217,0.344-0.329,0.53c3.568,0.915,14.776,3.714,18.266,3.714l0.118-0.001c6.408-0.14,31.058-6.266,33.661-7.567
			c0.12-0.06,0.317-0.113,0.452-0.113c0.479,0,0.887,0.407,0.887,0.886c0,1.634-10.992,11.276-14.972,11.418
			c-1.263,0.408-10.556,3.339-16.854,3.34c-0.277,0-0.547-0.006-0.812-0.018c-5.348-0.237-22.664-2.342-27.129-5.625l-0.105,0.094
			c2.379,1.329,8.141,4.49,10.501,5.29c2.658,0.901,7.041,1.975,12.828,1.975c5.443,0,10.803-0.954,15.929-2.835
			c0.099-0.036,0.199-0.053,0.299-0.053c0.328,0,0.64,0.188,0.786,0.501c0.19,0.408,0.036,0.895-0.355,1.119l-11.85,6.791
			c-0.097,0.055-0.203,0.092-0.313,0.106c-0.39,0.053-9.591,1.297-14.184,1.297c-1.86,0-2.43-0.202-2.768-0.42
			c-0.362-0.234-1.93-0.946-3.744-1.77c-8.244-3.741-13.305-6.276-14.883-8.141l-1.026,0.411
			c2.824,2.828,12.117,11.302,22.039,11.302c0.507,0,1.016-0.022,1.511-0.066c0.026-0.002,0.052-0.003,0.077-0.003
			c0.357,0,0.682,0.221,0.811,0.56c0.138,0.363,0.018,0.773-0.295,1.004c-0.244,0.181-6.041,4.421-11.908,4.421
			c-0.771,0-1.519-0.075-2.224-0.222c-3.151-0.66-11.652-6.389-12.013-6.632c-0.058-0.039-0.111-0.085-0.158-0.137
			c-3.677-4.07-5.279-6.076-5.938-7.15c1.013,3.553,2.446,6.672,3.207,6.89c1.055,0.302,2.102,1.299,3.313,2.454
			c1.516,1.445,3.233,3.083,5.199,3.611c1.425,0.384,1.641,1.093,1.571,1.621C101.054,109.382,95.955,110.177,94.369,110.177z"/>
	</g>
	<g>
		<path fill="#E0A836" d="M62.967,124.585c-0.07,0-0.142-0.007-0.214-0.023c-14.159-3.08-37.806-8.591-40.19-11.524
			c-3.637-0.558-20.126-3.708-19.519-14.904c0.015-0.272,0.14-0.527,0.348-0.705c0.182-0.156,0.413-0.241,0.65-0.241
			c0.033,0,0.066,0.001,0.1,0.005l12.264,1.223L4.561,92.938c-0.322-0.149-0.541-0.458-0.575-0.811
			c-0.034-0.353,0.121-0.698,0.408-0.906l44.209-32.033c0.178-0.128,0.383-0.19,0.586-0.19c0.309,0,0.612,0.142,0.809,0.41
			l22.145,30.307c0.175,0.24,0.234,0.545,0.162,0.833l-8.368,33.28C63.822,124.282,63.415,124.585,62.967,124.585z"/>
	</g>
	<path opacity="0.1" fill="none" stroke="#2B2B2B" stroke-width="2" stroke-miterlimit="10" d="M41.834,70.667
		c0,0,12.111-7.435,17.306,4.949"/>
	<ellipse opacity="0.1" fill="#2B2B2B" cx="42.834" cy="84.152" rx="10" ry="9.537"/>
	<ellipse fill="#D8D8D8" cx="41.834" cy="83.152" rx="10" ry="9.537"/>
	<ellipse fill="#197CA9" cx="41.834" cy="83.152" rx="7.5" ry="7.153"/>
	<ellipse fill="#5E5F5F" cx="41.834" cy="83.153" rx="4.5" ry="4.292"/>
	<path fill="none" stroke="#EFEDE8" stroke-width="2" stroke-miterlimit="10" d="M41.834,68.667c0,0,12.111-7.435,17.306,4.949"/>
	<path opacity="0.3" fill="none" stroke="#5E5F5F" stroke-miterlimit="10" d="M99.001,64.412"/>
	<path opacity="0.3" fill="none" stroke="#5E5F5F" stroke-miterlimit="10" d="M74.667,81.394"/>
	<path opacity="0.1" fill="#6D6C6B" stroke="#5E5F5F" stroke-miterlimit="10" d="M128.334,49.088c0,0,10.333-18.754,18.333-21.088
		s-12.892,20.718-7,24.333"/>
	<path opacity="0.1" fill="#6D6C6B" stroke="#5E5F5F" stroke-width="0.9631" stroke-miterlimit="10" d="M142.334,53.101
		c0,0,9.623-18.68,17.074-21.004"/>
	<polygon fill="#E0A836" points="58.75,123.502 61.167,125.917 62.296,126.539 63.75,124.334 	"/>
</g>
</svg>
